<svg xmlns="http://www.w3.org/2000/svg" viewBox="0 0 512 512" role="img" aria-labelledby="t d">
  <title id="t">Network Hub Balance No Middle Ring</title>
  <desc id="d">Balanced network hub with outer perimeter ring and no intermediate ring.</desc>
  <defs>
    <linearGradient id="g" x1="96" y1="96" x2="416" y2="416" gradientUnits="userSpaceOnUse">
      <stop offset="0" stop-color="#22d3ee"/>
      <stop offset="1" stop-color="#c084fc"/>
    </linearGradient>
  </defs>
  <rect width="512" height="512" rx="112" fill="#050914"/>
  <circle cx="256" cy="256" r="160" fill="none" stroke="#1e293b" stroke-width="14"/>
  <line x1="256" y1="196" x2="256" y2="96" stroke="#67e8f9" stroke-width="7" stroke-linecap="round" opacity="0.82"/>
  <line x1="296" y1="220" x2="392" y2="160" stroke="#67e8f9" stroke-width="7" stroke-linecap="round" opacity="0.82"/>
  <line x1="296" y1="292" x2="392" y2="352" stroke="#67e8f9" stroke-width="7" stroke-linecap="round" opacity="0.82"/>
  <line x1="256" y1="316" x2="256" y2="416" stroke="#67e8f9" stroke-width="7" stroke-linecap="round" opacity="0.82"/>
  <line x1="216" y1="292" x2="120" y2="352" stroke="#67e8f9" stroke-width="7" stroke-linecap="round" opacity="0.82"/>
  <line x1="216" y1="220" x2="120" y2="160" stroke="#67e8f9" stroke-width="7" stroke-linecap="round" opacity="0.82"/>
  <circle cx="256" cy="256" r="54" fill="#050812" stroke="#60a5fa" stroke-width="10"/>
  <path d="M256 216l24 72h-12l-6-16h-12l-6 16h-12z" fill="#60a5fa"/>
  <circle cx="256" cy="96" r="24" fill="#0b1020" stroke="#22d3ee" stroke-width="6"/>
  <circle cx="392" cy="160" r="24" fill="#0b1020" stroke="#7dd3fc" stroke-width="6"/>
  <circle cx="392" cy="352" r="24" fill="#0b1020" stroke="#c084fc" stroke-width="6"/>
  <circle cx="256" cy="416" r="24" fill="#0b1020" stroke="#c084fc" stroke-width="6"/>
  <circle cx="120" cy="352" r="24" fill="#0b1020" stroke="#7dd3fc" stroke-width="6"/>
  <circle cx="120" cy="160" r="24" fill="#0b1020" stroke="#22d3ee" stroke-width="6"/>
</svg>
